<svg width="40" height="40" viewBox="0 0 40 40" fill="none" xmlns="http://www.w3.org/2000/svg">
<rect width="40" height="40" rx="6" fill="#DBEAFE"/>
<path d="M21.5552 15.3333H18.4441C16.733 15.3333 15.333 16.7333 15.333 18.4444V21.5555C15.333 23.2666 16.733 24.6666 18.4441 24.6666H21.5552C23.2663 24.6666 24.6664 23.2666 24.6664 21.5555V18.4444C24.6664 16.7333 23.2663 15.3333 21.5552 15.3333Z" fill="#2563EB"/>
<path d="M30.8892 24.6667H27.7781C26.067 24.6667 24.667 26.0667 24.667 27.7778V30.8889C24.667 32.6 26.067 34 27.7781 34H30.8892C32.6003 34 34.0003 32.6 34.0003 30.8889V27.7778C34.0003 26.0667 32.6003 24.6667 30.8892 24.6667Z" fill="#2563EB"/>
<path d="M12.2222 15.3334H9.11111C7.4 15.3334 6 13.9334 6 12.2223V9.11115C6 7.40004 7.4 6.00004 9.11111 6.00004H12.2222C13.9333 6.00004 15.3333 7.40004 15.3333 9.11115V12.2223C15.3333 13.9334 13.9333 15.3334 12.2222 15.3334Z" fill="#2563EB"/>
<path d="M24.667 9.11115V12.2223C24.667 13.9334 26.067 15.3334 27.7781 15.3334H30.8892C32.6003 15.3334 34.0003 13.9334 34.0003 12.2223V9.11115C34.0003 7.40004 32.6003 6.00004 30.8892 6.00004H27.7781C26.067 6.00004 24.667 7.40004 24.667 9.11115Z" fill="#2563EB"/>
<path d="M15.3333 27.7778V30.8889C15.3333 32.6 13.9333 34 12.2222 34H9.11111C7.4 34 6 32.6 6 30.8889V27.7778C6 26.0667 7.4 24.6667 9.11111 24.6667H12.2222C13.9333 24.6667 15.3333 26.0667 15.3333 27.7778Z" fill="#2563EB"/>
<path d="M12.2224 24.6666C13.9335 24.6666 15.3335 26.0666 15.3335 27.7777C15.3335 26.0666 16.7335 24.6666 18.4446 24.6666C16.7335 24.6666 15.3335 23.2666 15.3335 21.5555C15.3335 23.2666 13.9335 24.6666 12.2224 24.6666Z" fill="#2563EB"/>
<path d="M21.5554 24.6666C23.2665 24.6666 24.6665 26.0666 24.6665 27.7777C24.6665 26.0666 26.0665 24.6666 27.7776 24.6666C26.0665 24.6666 24.6665 23.2666 24.6665 21.5555C24.6665 23.2666 23.2665 24.6666 21.5554 24.6666Z" fill="#2563EB"/>
<path d="M12.2224 15.3333C13.9335 15.3333 15.3335 16.7333 15.3335 18.4445C15.3335 16.7333 16.7335 15.3333 18.4446 15.3333C16.7335 15.3333 15.3335 13.9333 15.3335 12.2222C15.3335 13.9333 13.9335 15.3333 12.2224 15.3333Z" fill="#2563EB"/>
<path d="M21.5554 15.3333C23.2665 15.3333 24.6665 16.7333 24.6665 18.4445C24.6665 16.7333 26.0665 15.3333 27.7776 15.3333C26.0665 15.3333 24.6665 13.9333 24.6665 12.2222C24.6665 13.9333 23.2665 15.3333 21.5554 15.3333Z" fill="#2563EB"/>
</svg>
