<svg width="40" height="40" viewBox="0 0 40 40" fill="none" xmlns="http://www.w3.org/2000/svg">
<rect width="40" height="40" rx="6" fill="white"/>
<path d="M6 15.3334H15.3333V24.6667C10.1844 24.6667 6 20.4823 6 15.3334Z" fill="black"/>
<path d="M15.3333 24.6666V34H6C6 28.8355 10.1844 24.6666 15.3333 24.6666Z" fill="#FCD34D"/>
<path d="M24.667 15.3334H34.0003V24.6667C28.8514 24.6667 24.667 20.4823 24.667 15.3334Z" fill="#FCD34D"/>
<path d="M24.6664 34H15.333V24.6666C20.4819 24.6666 24.6664 28.8355 24.6664 34Z" fill="#FCD34D"/>
<path d="M34.0003 6V15.3333H24.667C24.667 10.1689 28.8514 6 34.0003 6Z" fill="#FCD34D"/>
<path d="M24.6664 15.3333H15.333V6C20.4819 6 24.6664 10.1689 24.6664 15.3333Z" fill="black"/>
<path d="M15.333 24.6667V15.3334H24.6664C24.6664 20.4823 20.4819 24.6667 15.333 24.6667Z" fill="black"/>
<path d="M34.0003 24.6666V34H24.667C24.667 28.8355 28.8514 24.6666 34.0003 24.6666Z" fill="black"/>
<path d="M15.3333 6V15.3333H6C6 10.1689 10.1844 6 15.3333 6Z" fill="black"/>
</svg>
