<svg width="135" height="45" viewBox="0 0 135 45" fill="none" xmlns="http://www.w3.org/2000/svg">
<rect width="135" height="45" fill="black"/>
<path d="M91.7166 21.601V24.1784H90.101V25.8686H91.7166V31.6117C91.7166 33.5728 92.6037 34.3572 94.8356 34.3572C95.2278 34.3572 95.6013 34.3105 95.9282 34.2545V32.5829C95.648 32.6109 95.4706 32.6296 95.1624 32.6296C94.1632 32.6296 93.7243 32.1627 93.7243 31.0981V25.8686H95.9282V24.1784H93.7243V21.601H91.7166Z" fill="#F4FAFF"/>
<path d="M101.614 34.4973C104.583 34.4973 106.404 32.5082 106.404 29.2117C106.404 25.934 104.574 23.9356 101.614 23.9356C98.6442 23.9356 96.8138 25.934 96.8138 29.2117C96.8138 32.5082 98.6348 34.4973 101.614 34.4973ZM101.614 32.7136C99.8675 32.7136 98.887 31.4343 98.887 29.2117C98.887 27.0079 99.8675 25.7192 101.614 25.7192C103.351 25.7192 104.341 27.0079 104.341 29.2117C104.341 31.4249 103.351 32.7136 101.614 32.7136Z" fill="#F4FAFF"/>
<path d="M107.962 34.3012H109.97V28.2966C109.97 26.8678 111.044 25.906 112.566 25.906C112.921 25.906 113.519 25.9713 113.687 26.0274V24.0476C113.472 23.9916 113.089 23.9636 112.79 23.9636C111.464 23.9636 110.334 24.692 110.045 25.6912H109.895V24.1317H107.962V34.3012Z" fill="#F4FAFF"/>
<path d="M118.672 25.6445C120.157 25.6445 121.128 26.681 121.175 28.2779H116.039C116.151 26.6904 117.187 25.6445 118.672 25.6445ZM121.165 31.5557C120.792 32.3494 119.961 32.7883 118.747 32.7883C117.141 32.7883 116.104 31.6584 116.039 29.8748V29.7627H123.22V29.0623C123.22 25.8686 121.511 23.9356 118.681 23.9356C115.814 23.9356 113.993 25.9993 113.993 29.2491C113.993 32.4989 115.777 34.4973 118.691 34.4973C121.016 34.4973 122.641 33.3767 123.098 31.5557H121.165Z" fill="#F4FAFF"/>
<path d="M78.55 30.5457C78.7049 33.0429 80.7859 34.6399 83.8831 34.6399C87.1934 34.6399 89.2646 32.9655 89.2646 30.2941C89.2646 28.1937 88.0838 27.0323 85.2188 26.3644L83.6799 25.9869C81.8602 25.5611 81.1246 24.99 81.1246 23.9931C81.1246 22.7348 82.2668 21.9121 83.9799 21.9121C85.606 21.9121 86.7288 22.7155 86.932 24.0028H89.042C88.9162 21.6508 86.8449 19.9957 84.009 19.9957C80.9601 19.9957 78.9275 21.6508 78.9275 24.1383C78.9275 26.1902 80.0793 27.4097 82.6055 28.0002L84.4058 28.4357C86.2545 28.8713 87.0675 29.5101 87.0675 30.5748C87.0675 31.8137 85.7899 32.7138 84.0477 32.7138C82.1797 32.7138 80.8827 31.8717 80.6988 30.5457H78.55Z" fill="#F4FAFF"/>
<path d="M57.7518 23.9636C56.3697 23.9636 55.1744 24.6546 54.5581 25.8126H54.4087V24.1317H52.4756V37.6817H54.4834V32.7603H54.6421C55.1744 33.8342 56.323 34.4693 57.7705 34.4693C60.3385 34.4693 61.9727 32.4428 61.9727 29.2117C61.9727 25.9807 60.3385 23.9636 57.7518 23.9636ZM57.1822 32.6669C55.5012 32.6669 54.446 31.3409 54.446 29.2211C54.446 27.0919 55.5012 25.7659 57.1915 25.7659C58.8911 25.7659 59.909 27.0639 59.909 29.2117C59.909 31.3689 58.8911 32.6669 57.1822 32.6669Z" fill="#F4FAFF"/>
<path d="M68.9982 23.9636C67.6161 23.9636 66.4208 24.6546 65.8045 25.8126H65.6551V24.1317H63.722V37.6817H65.7298V32.7603H65.8885C66.4208 33.8342 67.5694 34.4693 69.0169 34.4693C71.5849 34.4693 73.2191 32.4428 73.2191 29.2117C73.2191 25.9807 71.5849 23.9636 68.9982 23.9636ZM68.4285 32.6669C66.7476 32.6669 65.6924 31.3409 65.6924 29.2211C65.6924 27.0919 66.7476 25.7659 68.4379 25.7659C70.1375 25.7659 71.1554 27.0639 71.1554 29.2117C71.1554 31.3689 70.1375 32.6669 68.4285 32.6669Z" fill="#F4FAFF"/>
<path d="M48.8734 34.3012H51.177L46.1342 20.3344H43.8016L38.7589 34.3012H40.985L42.2723 30.5941H47.5957L48.8734 34.3012ZM44.8566 22.8703H45.0211L47.044 28.7745H42.824L44.8566 22.8703Z" fill="#F4FAFF"/>
<path d="M40.1075 9.7998V16.5374H42.5402C44.5479 16.5374 45.7106 15.3001 45.7106 13.1476C45.7106 11.0278 44.5386 9.7998 42.5402 9.7998H40.1075ZM41.1534 10.7523H42.4235C43.8195 10.7523 44.646 11.6395 44.646 13.1616C44.646 14.7071 43.8336 15.5849 42.4235 15.5849H41.1534V10.7523Z" fill="#F4FAFF"/>
<path d="M49.2713 16.6355C50.7561 16.6355 51.6666 15.641 51.6666 13.9927C51.6666 12.3539 50.7514 11.3546 49.2713 11.3546C47.7865 11.3546 46.8713 12.3539 46.8713 13.9927C46.8713 15.641 47.7818 16.6355 49.2713 16.6355ZM49.2713 15.7437C48.3982 15.7437 47.9079 15.104 47.9079 13.9927C47.9079 12.8908 48.3982 12.2465 49.2713 12.2465C50.1398 12.2465 50.6347 12.8908 50.6347 13.9927C50.6347 15.0993 50.1398 15.7437 49.2713 15.7437Z" fill="#F4FAFF"/>
<path d="M59.4202 11.4527H58.4164L57.5105 15.3328H57.4312L56.3853 11.4527H55.4234L54.3775 15.3328H54.3028L53.3923 11.4527H52.3744L53.7752 16.5374H54.8071L55.853 12.7928H55.9324L56.9829 16.5374H58.0242L59.4202 11.4527Z" fill="#F4FAFF"/>
<path d="M60.5763 16.5374H61.5802V13.5632C61.5802 12.7694 62.0518 12.2745 62.7942 12.2745C63.5366 12.2745 63.8915 12.6807 63.8915 13.4978V16.5374H64.8953V13.2457C64.8953 12.0363 64.2697 11.3546 63.1351 11.3546C62.3693 11.3546 61.865 11.6955 61.6176 12.2605H61.5429V11.4527H60.5763V16.5374Z" fill="#F4FAFF"/>
<path d="M66.4763 16.5374H67.4802V9.46829H66.4763V16.5374Z" fill="#F4FAFF"/>
<path d="M71.2557 16.6355C72.7405 16.6355 73.651 15.641 73.651 13.9927C73.651 12.3539 72.7358 11.3546 71.2557 11.3546C69.7709 11.3546 68.8557 12.3539 68.8557 13.9927C68.8557 15.641 69.7662 16.6355 71.2557 16.6355ZM71.2557 15.7437C70.3826 15.7437 69.8923 15.104 69.8923 13.9927C69.8923 12.8908 70.3826 12.2465 71.2557 12.2465C72.1242 12.2465 72.6191 12.8908 72.6191 13.9927C72.6191 15.0993 72.1242 15.7437 71.2557 15.7437Z" fill="#F4FAFF"/>
<path d="M76.6421 15.7764C76.0958 15.7764 75.6989 15.5102 75.6989 15.0526C75.6989 14.6044 76.0164 14.3663 76.7168 14.3196L77.9588 14.2402V14.6651C77.9588 15.2954 77.3985 15.7764 76.6421 15.7764ZM76.3853 16.6215C77.053 16.6215 77.6086 16.332 77.9121 15.8231H77.9915V16.5374H78.958V13.0636C78.958 11.9897 78.2389 11.3546 76.9643 11.3546C75.811 11.3546 74.9892 11.9149 74.8865 12.7881H75.8577C75.9697 12.4286 76.3573 12.2231 76.9176 12.2231C77.6039 12.2231 77.9588 12.5266 77.9588 13.0636V13.5025L76.5814 13.5818C75.3721 13.6566 74.6904 14.1842 74.6904 15.0993C74.6904 16.0285 75.4047 16.6215 76.3853 16.6215Z" fill="#F4FAFF"/>
<path d="M82.3646 16.6215C83.065 16.6215 83.658 16.29 83.9615 15.7343H84.0409V16.5374H85.0027V9.46829H83.9989V12.2605H83.9241C83.6487 11.7002 83.0603 11.3687 82.3646 11.3687C81.0806 11.3687 80.2542 12.3865 80.2542 13.9927C80.2542 15.6036 81.0713 16.6215 82.3646 16.6215ZM82.6495 12.2698C83.4899 12.2698 84.0175 12.9375 84.0175 13.9974C84.0175 15.062 83.4946 15.7203 82.6495 15.7203C81.7997 15.7203 81.2907 15.0713 81.2907 13.9927C81.2907 12.9235 81.8043 12.2698 82.6495 12.2698Z" fill="#F4FAFF"/>
<path d="M91.5125 16.6355C92.9973 16.6355 93.9078 15.641 93.9078 13.9927C93.9078 12.3539 92.9926 11.3546 91.5125 11.3546C90.0277 11.3546 89.1126 12.3539 89.1126 13.9927C89.1126 15.641 90.023 16.6355 91.5125 16.6355ZM91.5125 15.7437C90.6394 15.7437 90.1491 15.104 90.1491 13.9927C90.1491 12.8908 90.6394 12.2465 91.5125 12.2465C92.381 12.2465 92.8759 12.8908 92.8759 13.9927C92.8759 15.0993 92.381 15.7437 91.5125 15.7437Z" fill="#F4FAFF"/>
<path d="M95.2367 16.5374H96.2405V13.5632C96.2405 12.7694 96.7121 12.2745 97.4545 12.2745C98.1969 12.2745 98.5518 12.6807 98.5518 13.4978V16.5374H99.5557V13.2457C99.5557 12.0363 98.93 11.3546 97.7954 11.3546C97.0296 11.3546 96.5254 11.6955 96.2779 12.2605H96.2032V11.4527H95.2367V16.5374Z" fill="#F4FAFF"/>
<path d="M104.179 10.1873V11.476H103.371V12.3212H104.179V15.1927C104.179 16.1732 104.623 16.5655 105.739 16.5655C105.935 16.5655 106.121 16.5421 106.285 16.5141V15.6783C106.145 15.6923 106.056 15.7017 105.902 15.7017C105.402 15.7017 105.183 15.4682 105.183 14.9359V12.3212H106.285V11.476H105.183V10.1873H104.179Z" fill="#F4FAFF"/>
<path d="M107.632 16.5374H108.636V13.5678C108.636 12.7974 109.094 12.2791 109.916 12.2791C110.625 12.2791 111.004 12.69 111.004 13.5025V16.5374H112.007V13.255C112.007 12.0457 111.34 11.3593 110.257 11.3593C109.491 11.3593 108.954 11.7002 108.706 12.2698H108.627V9.46829H107.632V16.5374Z" fill="#F4FAFF"/>
<path d="M115.629 12.2091C116.371 12.2091 116.857 12.7274 116.88 13.5258H114.312C114.368 12.7321 114.886 12.2091 115.629 12.2091ZM116.876 15.1647C116.689 15.5616 116.273 15.781 115.666 15.781C114.863 15.781 114.345 15.2161 114.312 14.3242V14.2682H117.903V13.918C117.903 12.3212 117.048 11.3546 115.634 11.3546C114.2 11.3546 113.29 12.3865 113.29 14.0114C113.29 15.6363 114.181 16.6355 115.638 16.6355C116.801 16.6355 117.613 16.0752 117.842 15.1647H116.876Z" fill="#F4FAFF"/>
<path d="M27.8651 22.8384C27.8895 20.9473 28.9051 19.1579 30.5162 18.1674C29.4998 16.7157 27.7974 15.7954 26.0262 15.74C24.137 15.5417 22.3056 16.8704 21.3429 16.8704C20.3616 16.8704 18.8794 15.7597 17.2834 15.7925C15.203 15.8597 13.2635 17.0425 12.2513 18.8613C10.0756 22.6283 11.6985 28.1645 13.7827 31.2094C14.8254 32.7004 16.0441 34.366 17.6388 34.3069C19.1992 34.2422 19.782 33.3119 21.6656 33.3119C23.5317 33.3119 24.0785 34.3069 25.7055 34.2693C27.3799 34.2422 28.4349 32.7717 29.441 31.2666C30.1903 30.2042 30.7668 29.03 31.1493 27.7875C29.1815 26.9552 27.8674 24.9749 27.8651 22.8384Z" fill="#F4FAFF"/>
<path d="M24.792 13.7375C25.705 12.6415 26.1547 11.2328 26.0458 9.81052C24.651 9.95701 23.3626 10.6236 22.4373 11.6776C21.5325 12.7073 21.0616 14.0912 21.1506 15.4591C22.5459 15.4735 23.9176 14.8249 24.792 13.7375Z" fill="#F4FAFF"/>
</svg>
