<svg width="42" height="32" viewBox="0 0 42 32" fill="none" xmlns="http://www.w3.org/2000/svg">
<path d="M19.3265 23.5904C19.3265 25.9204 18.4267 27.9226 16.6272 29.5973C14.8997 31.1991 12.7044 32 10.0411 32C6.94602 32 4.49871 30.9078 2.69923 28.7235C0.899743 26.5392 0 23.9545 0 20.9693C0 14.1979 1.83548 9.10125 5.50643 5.67918C9.17738 2.25711 13.2442 0.36405 17.7069 0V7.42662C15.5476 7.64505 13.4961 8.51877 11.5527 10.0478C9.68123 11.5768 8.67352 13.5063 8.52956 15.8362C9.24936 15.4721 10.0411 15.2901 10.9049 15.2901C13.5681 15.2901 15.6195 16.0546 17.0591 17.5836C18.5707 19.1126 19.3265 21.1149 19.3265 23.5904ZM42 23.5904C42 25.9204 41.1003 27.9226 39.3008 29.5973C37.5733 31.1991 35.3779 32 32.7147 32C29.6195 32 27.1722 30.9078 25.3727 28.7235C23.6452 26.5392 22.7815 23.9545 22.7815 20.9693C22.7815 14.1979 24.581 9.10125 28.18 5.67918C31.8509 2.25711 35.9177 0.36405 40.3805 0V7.42662C38.2211 7.64505 36.1697 8.51877 34.2262 10.0478C32.3548 11.5768 31.347 13.5063 31.2031 15.8362C31.9229 15.4721 32.7147 15.2901 33.5784 15.2901C36.2416 15.2901 38.2931 16.0546 39.7326 17.5836C41.2442 19.1126 42 21.1149 42 23.5904Z" fill="#171717"/>
</svg>
