<svg width="120" height="24" viewBox="0 0 120 24" fill="none" xmlns="http://www.w3.org/2000/svg">
<path d="M10.9255 4.73601C11.2637 3.69509 12.7363 3.69509 13.0745 4.73601L14.2829 8.45515C14.4342 8.92067 14.868 9.23584 15.3574 9.23584H19.268C20.3625 9.23584 20.8175 10.6364 19.9321 11.2797L16.7684 13.5783C16.3724 13.866 16.2067 14.3759 16.358 14.8414L17.5664 18.5606C17.9046 19.6015 16.7132 20.4671 15.8278 19.8238L12.6641 17.5252C12.2681 17.2375 11.7319 17.2375 11.3359 17.5252L8.17219 19.8238C7.28673 20.4671 6.09536 19.6015 6.43357 18.5606L7.64199 14.8414C7.79325 14.3759 7.62755 13.866 7.23156 13.5783L4.06787 11.2797C3.18241 10.6364 3.63748 9.23584 4.73196 9.23584H8.6425C9.13197 9.23584 9.56577 8.92067 9.71703 8.45515L10.9255 4.73601Z" fill="#F59E0B"/>
<path d="M34.9255 4.73601C35.2637 3.69509 36.7363 3.69509 37.0745 4.73601L38.2829 8.45515C38.4342 8.92067 38.868 9.23584 39.3574 9.23584H43.268C44.3625 9.23584 44.8175 10.6364 43.9321 11.2797L40.7684 13.5783C40.3724 13.866 40.2067 14.3759 40.358 14.8414L41.5664 18.5606C41.9046 19.6015 40.7132 20.4671 39.8278 19.8238L36.6641 17.5252C36.2681 17.2375 35.7319 17.2375 35.3359 17.5252L32.1722 19.8238C31.2867 20.4671 30.0954 19.6015 30.4336 18.5606L31.642 14.8414C31.7932 14.3759 31.6276 13.866 31.2316 13.5783L28.0679 11.2797C27.1824 10.6364 27.6375 9.23584 28.732 9.23584H32.6425C33.132 9.23584 33.5658 8.92067 33.717 8.45515L34.9255 4.73601Z" fill="#F59E0B"/>
<path d="M58.9255 4.73601C59.2637 3.69509 60.7363 3.69509 61.0745 4.73601L62.2829 8.45515C62.4342 8.92067 62.868 9.23584 63.3574 9.23584H67.268C68.3625 9.23584 68.8175 10.6364 67.9321 11.2797L64.7684 13.5783C64.3724 13.866 64.2067 14.3759 64.358 14.8414L65.5664 18.5606C65.9046 19.6015 64.7132 20.4671 63.8278 19.8238L60.6641 17.5252C60.2681 17.2375 59.7319 17.2375 59.3359 17.5252L56.1722 19.8238C55.2867 20.4671 54.0954 19.6015 54.4336 18.5606L55.642 14.8414C55.7932 14.3759 55.6276 13.866 55.2316 13.5783L52.0679 11.2797C51.1824 10.6364 51.6375 9.23584 52.732 9.23584H56.6425C57.132 9.23584 57.5658 8.92067 57.717 8.45515L58.9255 4.73601Z" fill="#F59E0B"/>
<path d="M82.9255 4.73601C83.2637 3.69509 84.7363 3.69509 85.0745 4.73601L86.2829 8.45515C86.4342 8.92067 86.868 9.23584 87.3574 9.23584H91.268C92.3625 9.23584 92.8175 10.6364 91.9321 11.2797L88.7684 13.5783C88.3724 13.866 88.2067 14.3759 88.358 14.8414L89.5664 18.5606C89.9046 19.6015 88.7132 20.4671 87.8278 19.8238L84.6641 17.5252C84.2681 17.2375 83.7319 17.2375 83.3359 17.5252L80.1722 19.8238C79.2867 20.4671 78.0954 19.6015 78.4336 18.5606L79.642 14.8414C79.7932 14.3759 79.6276 13.866 79.2316 13.5783L76.0679 11.2797C75.1824 10.6364 75.6375 9.23584 76.732 9.23584H80.6425C81.132 9.23584 81.5658 8.92067 81.717 8.45515L82.9255 4.73601Z" fill="#F59E0B"/>
<path d="M106.925 4.73601C107.264 3.69509 108.736 3.69509 109.075 4.73601L110.283 8.45515C110.434 8.92067 110.868 9.23584 111.357 9.23584H115.268C116.362 9.23584 116.818 10.6364 115.932 11.2797L112.768 13.5783C112.372 13.866 112.207 14.3759 112.358 14.8414L113.566 18.5606C113.905 19.6015 112.713 20.4671 111.828 19.8238L108.664 17.5252C108.268 17.2375 107.732 17.2375 107.336 17.5252L104.172 19.8238C103.287 20.4671 102.095 19.6015 102.434 18.5606L103.642 14.8414C103.793 14.3759 103.628 13.866 103.232 13.5783L100.068 11.2797C99.1824 10.6364 99.6375 9.23584 100.732 9.23584H104.643C105.132 9.23584 105.566 8.92067 105.717 8.45515L106.925 4.73601Z" fill="#F59E0B"/>
</svg>
