<svg width="99" height="14" viewBox="0 0 99 14" fill="none" xmlns="http://www.w3.org/2000/svg">
<path d="M29.4489 8.79252C29.4622 9.28929 29.3946 9.78503 29.2485 10.262C29.1395 10.6391 28.9203 10.9789 28.6164 11.2417C28.2874 11.5056 27.8958 11.6888 27.4757 11.7757C26.9155 11.8926 26.343 11.9468 25.7697 11.9373H17.7998L17.9488 9.81139H25.6207C25.8705 9.81534 26.12 9.79565 26.3657 9.75261C26.5402 9.73113 26.7053 9.66513 26.8436 9.56157C26.9618 9.46475 27.0475 9.33701 27.0903 9.19419C27.1449 9.00947 27.1692 8.81779 27.1622 8.62598C27.1826 8.4604 27.1656 8.29259 27.1124 8.13377C27.0593 7.97495 26.9711 7.8288 26.8539 7.70507C26.501 7.49615 26.0853 7.40483 25.672 7.44545H21.0885C20.5179 7.45612 19.9483 7.39852 19.3928 7.27401C18.991 7.17374 18.6207 6.98213 18.3137 6.71559C18.0288 6.47268 17.8206 6.15886 17.7125 5.80938C17.5861 5.39412 17.5255 4.96321 17.5326 4.53089V4.16841C17.5243 3.70542 17.5848 3.24363 17.7125 2.79685C17.8137 2.4361 18.0225 2.1111 18.3137 1.86125C18.64 1.60205 19.0254 1.41921 19.439 1.32732C20.0068 1.20355 20.5883 1.14598 21.1707 1.15587H29.084C29.0429 1.51836 28.9967 1.87594 28.9556 2.21883C28.9145 2.56172 28.8579 2.92421 28.8065 3.28669H21.1553C20.764 3.24537 20.3702 3.33922 20.0454 3.5512C19.8292 3.80581 19.7276 4.13161 19.7627 4.45741C19.7277 4.78623 19.8291 5.11506 20.0454 5.37342C20.3674 5.59174 20.7625 5.68939 21.1553 5.64773H25.672C26.2678 5.63676 26.8628 5.69266 27.4448 5.81428C27.8664 5.89472 28.2645 6.06189 28.6113 6.30412C28.9051 6.5322 29.1258 6.83429 29.2485 7.17604C29.39 7.57159 29.4578 7.9877 29.4489 8.40554V8.79252Z" fill="#171717"/>
<path d="M42.1205 11.9128L40.7074 9.40967H33.8937L32.4858 11.9128H29.9576L36.1239 1.13623H38.4413L44.6076 11.9128H42.1205ZM37.3263 3.25235L34.757 7.71482H39.8955L37.3263 3.25235Z" fill="#171717"/>
<path d="M48.6722 11.9127C48.1033 11.9237 47.5353 11.8661 46.9816 11.7413C46.5727 11.6504 46.1988 11.4518 45.9025 11.1682C45.6148 10.8659 45.4178 10.4953 45.3321 10.0954C45.2036 9.54734 45.1449 8.98649 45.1574 8.42503V4.63365C45.1449 4.07219 45.2036 3.51134 45.3321 2.96329C45.42 2.56121 45.6166 2.18802 45.9025 1.88073C46.1988 1.59707 46.5727 1.39848 46.9816 1.30761C47.5362 1.18906 48.1039 1.13478 48.6722 1.14597H55.008C55.3799 1.13922 55.7502 1.19391 56.1025 1.30761C56.3873 1.4076 56.6556 1.54618 56.8989 1.71908C57.0937 1.85833 57.2667 2.02326 57.4128 2.20893C57.5257 2.36345 57.6238 2.5274 57.7057 2.69877L56.2977 4.07523C56.1852 3.85268 56.0219 3.65688 55.8199 3.50211C55.5369 3.31207 55.194 3.22042 54.8487 3.2425H48.6824C48.4989 3.22494 48.3136 3.24231 48.1371 3.29361C47.9607 3.3449 47.7967 3.4291 47.6547 3.5413C47.4204 3.84806 47.3142 4.22695 47.3567 4.60426V8.39564C47.3531 8.59435 47.3703 8.7929 47.4081 8.98835C47.4318 9.14217 47.4974 9.2874 47.5982 9.40961C47.7014 9.53257 47.8411 9.62304 47.999 9.66923C48.2219 9.73448 48.4545 9.76427 48.6876 9.7574H54.9412C55.2869 9.78279 55.6309 9.69083 55.9123 9.49779C56.107 9.34104 56.2632 9.14538 56.3697 8.92467L57.7828 10.2913C57.7008 10.4627 57.6028 10.6267 57.4899 10.7812C57.347 10.9794 57.1738 11.1561 56.976 11.3053C56.7349 11.4804 56.4661 11.6176 56.1796 11.7119C55.8301 11.8301 55.4609 11.8866 55.0902 11.8784L48.6722 11.9127Z" fill="#171717"/>
<path d="M68.3732 11.9128V7.4699H61.6572V11.9128H59.4579V1.13623H61.6572V5.54482H68.3732V1.13623H70.5725V11.9128H68.3732Z" fill="#171717"/>
<path d="M83.9019 11.9128L82.4888 9.40967H75.6751L74.2671 11.9128H71.7544L77.9206 1.13623H80.2381L86.4043 11.9128H83.9019ZM79.0922 3.25725L76.5229 7.71972H81.6615L79.0922 3.25725Z" fill="#171717"/>
<path d="M87.5964 11.9128V1.13623H89.7957V9.77706H98.3V11.9128H87.5964Z" fill="#171717"/>
<path d="M6.7007 2.116H10.4775C9.58403 1.44961 8.50821 1.04247 7.37854 0.943212C6.24887 0.843957 5.1131 1.05678 4.10689 1.55627C3.10068 2.05575 2.26656 2.82078 1.70416 3.75998C1.14175 4.69919 0.874829 5.77286 0.935276 6.85278H8.64306L8.25253 7.83246H1.0586C1.10934 8.04103 1.17108 8.24703 1.24359 8.44967H8.00589L7.61022 9.42935H1.73689C1.87049 9.64214 2.01809 9.84665 2.1788 10.0417H7.35843L6.96277 11.0213H3.18595C4.07997 11.6871 5.15597 12.0937 6.28568 12.1927C7.41538 12.2916 8.5511 12.0788 9.55743 11.5795C10.5638 11.0802 11.3982 10.3156 11.9613 9.37677C12.5244 8.43795 12.7924 7.36455 12.7333 6.28456H5.02554L5.42121 5.30488H12.6151C12.565 5.09564 12.5016 4.88951 12.425 4.68767H5.66272L6.05325 3.70799H11.9266C11.7942 3.49443 11.6466 3.28985 11.4847 3.09568H6.31017L6.7007 2.116Z" fill="#171717"/>
<path d="M6.83424 13.0494C5.48096 13.0475 4.15866 12.6632 3.03444 11.945C1.91022 11.2269 1.03454 10.2072 0.518065 9.01482C0.00159584 7.82242 -0.132483 6.51082 0.132774 5.2458C0.398031 3.98078 1.05072 2.8191 2.00835 1.90759C2.96598 0.996069 4.18557 0.375623 5.513 0.124659C6.84042 -0.126306 8.2161 0.0034756 9.46617 0.497602C10.7162 0.991728 11.7846 1.82802 12.5362 2.90079C13.2879 3.97356 13.689 5.23466 13.689 6.5247C13.6884 7.38218 13.5105 8.23114 13.1657 9.0231C12.8208 9.81506 12.3157 10.5345 11.6792 11.1404C11.0427 11.7463 10.2872 12.2267 9.45588 12.5542C8.62459 12.8818 7.73375 13.0501 6.83424 13.0494ZM6.83424 0.450651C5.57381 0.449682 4.34138 0.805096 3.29288 1.47193C2.24437 2.13877 1.42688 3.08707 0.94383 4.19687C0.460778 5.30667 0.333863 6.52811 0.579138 7.70669C0.824414 8.88526 1.43086 9.96801 2.32176 10.818C3.21267 11.6679 4.348 12.2469 5.58414 12.4817C6.82028 12.7164 8.1017 12.5964 9.26629 12.1369C10.4309 11.6773 11.4263 10.8988 12.1267 9.89977C12.827 8.90079 13.2009 7.72624 13.2009 6.5247C13.1995 4.91501 12.5285 3.37154 11.3349 2.23286C10.1414 1.09418 8.52283 0.453245 6.83424 0.450651Z" fill="#171717"/>
</svg>
